<svg xmlns="http://www.w3.org/2000/svg" viewBox="0 0 192 48" role="img" aria-labelledby="title">
  <title id="title">dock Logo</title>
  <defs>
    <linearGradient id="dockGradient" x1="0%" y1="0%" x2="100%" y2="100%">
      <stop offset="0%" stop-color="#38bdf8"/>
      <stop offset="45%" stop-color="#6366f1"/>
      <stop offset="100%" stop-color="#a855f7"/>
    </linearGradient>
  </defs>
  <g fill="none" fill-rule="evenodd">
    <rect x="4" y="4" width="40" height="40" rx="12" fill="url(#dockGradient)"/>
    <path fill="#0f172a" d="M21.8 32c-4.06 0-7.4-3.26-7.4-7.28 0-3.76 2.84-6.86 6.57-7.24l.83-.08h10.8c.72 0 1.3-.58 1.3-1.28 0-.69-.58-1.28-1.3-1.28h-10.5c-1.25 0-2.27.98-2.27 2.2h-4.68c0-3.86 3.18-6.99 6.95-6.99h10.5c3.27 0 5.95 2.63 5.95 5.89 0 3.29-2.68 5.89-5.95 5.89h-10.8c-1.48 0-2.72 1.22-2.72 2.72 0 1.56 1.29 2.84 2.88 2.84h10.05c1.19 0 2.17-.96 2.17-2.14h4.68c0 3.73-3.04 6.78-6.81 6.78H21.8Z"/>
    <g fill="#0f172a" transform="translate(56 7)">
      <path d="M22.68 25.76c0 5.55-4.54 10.04-10.33 10.04-5.82 0-10.36-4.49-10.36-10.04 0-5.53 4.54-10.02 10.36-10.02 5.79 0 10.33 4.49 10.33 10.02Zm-4.94 0c0-3.1-2.32-5.46-5.39-5.46-3.1 0-5.43 2.36-5.43 5.46 0 3.13 2.33 5.49 5.43 5.49 3.07 0 5.39-2.36 5.39-5.49Z"/>
      <path d="M51.88 25.76c0 5.55-4.54 10.04-10.33 10.04-1.85 0-3.58-.49-5.07-1.34v7.07h-4.9V16.18h4.9v1.4c1.49-.85 3.22-1.34 5.07-1.34 5.79 0 10.33 4.49 10.33 10.02Zm-4.94 0c0-3.1-2.32-5.46-5.39-5.46-3.1 0-5.43 2.36-5.43 5.46 0 3.13 2.33 5.49 5.43 5.49 3.07 0 5.39-2.36 5.39-5.49Z"/>
      <path d="M79.36 25.76c0 5.53-4.54 10.02-10.33 10.02-1.85 0-3.58-.49-5.07-1.34v1.19h-4.9V6h4.9v11.58c1.49-.85 3.22-1.34 5.07-1.34 5.79 0 10.33 4.49 10.33 10.02Zm-4.94 0c0-3.1-2.32-5.46-5.39-5.46-3.1 0-5.43 2.36-5.43 5.46 0 3.13 2.33 5.49 5.43 5.49 3.07 0 5.39-2.36 5.39-5.49Z"/>
      <path d="M99.35 35.2c-2.07.38-4.16.58-6.27.58-6.86 0-11.61-4.44-11.61-10.58 0-6.11 4.75-10.54 11.54-10.54 2.18 0 4.32.33 6.34.98v4.55c-2.04-.98-4.01-1.48-5.92-1.48-3.8 0-6.5 2.39-6.5 5.97 0 3.61 2.7 6.02 6.63 6.02 1.89 0 3.85-.44 5.79-1.34v4.84Z"/>
    </g>
  </g>
</svg>
